<svg width="120" height="120" viewBox="0 0 48 48" fill="none" xmlns="http://www.w3.org/2000/svg" aria-hidden="true">
  <defs>
    <linearGradient id="g" x1="0" y1="0" x2="1" y2="1">
      <stop offset="0%" stop-color="#FF593D"/>
      <stop offset="100%" stop-color="#FF7A00"/>
    </linearGradient>
  </defs>
  <path d="M10 8c1.2-2 3.5-3 5.8-3h7.2c1 .1 1.8.9 1.8 2s-.8 1.9-1.8 2H17c-.8 0-1.6.4-2 1.1l-4.4 7.2c-.6 1-.3 2.3.7 2.9.3.2.7.3 1.1.3h7.7c1.1 0 2 .9 2 2s-.9 2-2 2H10.8c-4.2 0-6.8-4.6-4.7-8.2L10 8z" fill="url(#g)"/>
  <path d="M38 40c-1.2 2-3.5 3-5.8 3H25c-1-.1-1.8-.9-1.8-2s.8-1.9 1.8-2h6.2c.8 0 1.6-.4 2-1.1l4.4-7.2c.6-1 .3-2.3-.7-2.9-.3-.2-.7-.3-1.1-.3h-7.7c-1.1 0-2-.9-2-2s.9-2 2-2h9.2c4.2 0 6.8 4.6 4.7 8.2L38 40z" fill="url(#g)"/>
  <circle cx="9" cy="34.5" r="1.5" fill="#FF593D"/>
</svg>

